<svg width="25" height="24" viewBox="0 0 25 24" fill="none" xmlns="http://www.w3.org/2000/svg">
<path d="M18.8562 6.09706C19.206 5.56556 19.5155 5.08788 19.8317 4.6102C20.1277 4.15944 20.4372 3.72213 20.713 3.2579C21.2647 2.32273 22.3883 2.08726 23.2158 2.61876C23.9424 3.08298 24.3259 4.15944 23.6531 5.16861C22.321 7.16679 21.0225 9.19187 19.7039 11.1968C19.5895 11.3717 19.5626 11.5332 19.5895 11.7417C19.8384 13.6053 20.0806 15.4757 20.3296 17.3393C20.3901 17.7833 20.4372 18.2206 20.5045 18.6647C20.6727 19.7411 20.0941 20.5081 19.0109 20.6427C18.5467 20.6965 18.069 20.7301 17.6115 20.8311C16.9925 20.9656 16.3803 21.154 15.7681 21.3356C12.9222 22.1901 10.0763 23.0512 7.23043 23.9057C6.2078 24.2084 5.40046 23.7711 5.0977 22.7552C3.4292 17.2249 1.76742 11.7014 0.105638 6.17779C-0.217299 5.09461 0.206555 4.30745 1.28974 3.98451C2.198 3.7154 3.10626 3.43956 4.01452 3.16371C4.12216 3.13007 4.22308 3.11662 4.22981 2.94842C4.28363 2.08726 4.82859 1.53557 5.68975 1.4212C8.49527 1.05117 11.3075 0.681136 14.113 0.317833C14.88 0.216915 15.647 0.115997 16.4139 0.0150792C17.3155 -0.0992942 18.0757 0.445662 18.2103 1.35392C18.4256 2.84078 18.6072 4.33436 18.8091 5.82794C18.8158 5.88849 18.8292 5.95577 18.8562 6.09706ZM15.6537 10.9882C15.499 11.0017 15.4048 11.0151 15.3039 11.0286C14.3552 11.1564 13.4066 11.291 12.458 11.4121C12.1687 11.4457 11.987 11.2977 11.9668 11.0622C11.9467 10.8402 12.1014 10.6855 12.3772 10.6451C13.6017 10.4769 14.8262 10.3221 16.0506 10.1472C16.1448 10.1338 16.2592 10.0665 16.3063 9.99248C16.9185 9.07749 17.5173 8.15578 18.1161 7.22734C18.1632 7.15333 18.1901 7.03896 18.1766 6.95149C17.9412 5.15516 17.699 3.35209 17.4568 1.55576C17.3828 1.01753 17.0329 0.734959 16.4947 0.802238C15.7613 0.8897 15.028 0.98389 14.2947 1.08481C12.4109 1.33374 10.5271 1.58267 8.65001 1.8316C7.65429 1.9527 6.65857 2.08053 5.66957 2.22181C5.22553 2.28237 4.94969 2.67258 5.00351 3.10989C5.11789 3.99124 5.23226 4.87932 5.34663 5.76066C5.6763 8.2567 6.00596 10.7595 6.33563 13.2555C6.65856 15.6775 6.97477 18.1063 7.29098 20.5283C7.35826 21.0531 7.71484 21.3222 8.24634 21.2549C9.93503 21.0396 11.6304 20.8176 13.3191 20.5956C15.2164 20.3466 17.1204 20.0977 19.0176 19.8421C19.5357 19.7748 19.8048 19.398 19.7308 18.88C19.5491 17.5277 19.3809 16.1821 19.1993 14.8298C19.0984 14.0561 18.9907 13.2891 18.8831 12.4616C18.8091 12.5692 18.7552 12.6298 18.7149 12.6971C18.2439 13.4237 17.773 14.1503 17.2953 14.8702C17.228 14.9711 17.1473 15.0787 17.0531 15.1595C16.4072 15.7246 15.7681 16.2965 15.102 16.8414C14.9338 16.976 14.7051 17.0769 14.4898 17.1038C13.7766 17.1711 13.2451 16.5118 13.4268 15.8121C13.5142 15.4824 13.6219 15.1595 13.7228 14.8231C13.6757 14.8096 13.6488 14.8029 13.6286 14.8029C12.828 14.9038 12.0274 15.0115 11.2268 15.1191C10.3791 15.2335 9.52463 15.3479 8.67692 15.4488C8.35398 15.4891 8.17233 15.3613 8.14542 15.1258C8.11851 14.8769 8.25979 14.7289 8.576 14.6818C10.2983 14.4463 12.0207 14.2108 13.7497 13.9888C13.9314 13.9619 14.0256 13.9148 14.0861 13.7264C14.1803 13.4237 14.2879 13.1142 14.4494 12.8518C14.8262 12.2329 15.2298 11.6408 15.6537 10.9882ZM4.324 3.87687C3.34846 4.17289 2.40656 4.45546 1.46466 4.74476C0.852429 4.93314 0.650593 5.29644 0.832245 5.90868C2.50075 11.4457 4.16926 16.9827 5.83777 22.513C6.01942 23.1252 6.39618 23.3271 7.00841 23.1454C8.67019 22.6476 10.332 22.143 12.0005 21.6451C12.0543 21.6317 12.1081 21.598 12.1619 21.5778C12.0745 21.5509 12.0005 21.5509 11.9265 21.5577C10.7356 21.7124 9.54481 21.8604 8.35398 22.0286C7.46591 22.1497 6.67875 21.6048 6.54419 20.7099C6.38272 19.5999 6.24144 18.4763 6.09343 17.3662C5.84449 15.5026 5.60229 13.639 5.36009 11.7686C5.11789 9.91175 4.87568 8.05486 4.63348 6.19797C4.53256 5.431 4.42492 4.67075 4.324 3.87687ZM16.7773 14.2647C18.439 11.7215 20.0941 9.19187 21.7491 6.64874C21.1975 6.29216 20.666 5.94232 20.121 5.58574C18.4592 8.1356 16.8109 10.6585 15.1491 13.2017C15.6941 13.5515 16.2256 13.9014 16.7773 14.2647ZM22.9063 4.8524C23.2158 4.46219 23.3571 4.06525 23.1149 3.62121C22.9198 3.26463 22.6036 3.08298 22.1999 3.10989C21.7626 3.1368 21.48 3.38573 21.3051 3.80286C21.8433 4.15271 22.3681 4.49583 22.9063 4.8524ZM14.5772 14.6952C14.9338 14.924 15.2635 15.146 15.6201 15.3748C15.795 15.22 16.0035 15.0384 16.2323 14.8365C15.7412 14.5136 15.2904 14.2243 14.8194 13.9148C14.7253 14.2108 14.6445 14.4732 14.5772 14.6952ZM22.4892 5.50501C21.9442 5.14843 21.406 4.79858 20.8611 4.44201C20.7467 4.62366 20.6525 4.77167 20.5516 4.93987C21.1033 5.30317 21.6348 5.64629 22.173 5.99614C22.2874 5.82121 22.3816 5.6732 22.4892 5.50501ZM14.3485 15.4622C14.2812 15.6775 14.2072 15.839 14.1803 16.0139C14.1668 16.1014 14.2207 16.2427 14.2879 16.283C14.3552 16.3301 14.5032 16.3167 14.5772 16.2696C14.7253 16.1821 14.8396 16.0475 15.0078 15.8995C14.7858 15.7448 14.5772 15.6102 14.3485 15.4622Z" fill="white"/>
<path d="M7.76239 8.48531C7.45963 8.49203 7.28471 8.35748 7.26453 8.14219C7.24434 7.93362 7.39236 7.7587 7.64129 7.72506C9.13487 7.52322 10.6217 7.32139 12.1153 7.12628C13.4205 6.95136 14.7324 6.78316 16.0376 6.60824C16.3471 6.56787 16.5355 6.68897 16.5691 6.93117C16.6028 7.16665 16.4413 7.34157 16.1386 7.38194C13.4474 7.73851 10.7563 8.08836 8.06514 8.44494C7.94404 8.45167 7.82967 8.47185 7.76239 8.48531Z" fill="white"/>
<path d="M15.613 3.12329C15.9225 3.11656 16.0907 3.25112 16.1109 3.47314C16.1311 3.68843 15.983 3.85662 15.7341 3.89026C14.4693 4.05846 13.2044 4.22666 11.9396 4.39485C11.2332 4.48904 10.5268 4.58323 9.82033 4.67069C9.75978 4.67742 9.70595 4.69088 9.6454 4.69088C9.3561 4.71106 9.17445 4.58996 9.14081 4.35448C9.1139 4.13247 9.26191 3.96427 9.55794 3.9239C11.0448 3.72207 12.5384 3.52696 14.0252 3.33185C14.5769 3.26457 15.1219 3.19057 15.613 3.12329Z" fill="white"/>
<path d="M9.13445 18.9271C8.8317 18.9338 8.65677 18.7992 8.63659 18.5705C8.62313 18.3552 8.77114 18.2005 9.0268 18.1601C9.98216 18.0323 10.9375 17.9044 11.8929 17.7766C12.1485 17.743 12.3436 17.8775 12.384 18.0996C12.4244 18.3283 12.2696 18.5234 11.9938 18.557C11.173 18.6647 10.3455 18.7656 9.52466 18.8733C9.38338 18.8934 9.24209 18.9136 9.13445 18.9271Z" fill="white"/>
<path d="M8.21931 11.9706C7.88292 11.9773 7.72145 11.8562 7.70799 11.6208C7.69454 11.392 7.82237 11.244 8.08475 11.2036C8.61625 11.1296 9.14775 11.0624 9.67925 10.9951C9.94837 10.9614 10.13 11.0893 10.1637 11.318C10.1973 11.54 10.0493 11.7284 9.79363 11.762C9.24194 11.8361 8.70371 11.9033 8.21931 11.9706Z" fill="white"/>
</svg>
