<svg width="24" height="24" viewBox="0 0 24 24" fill="none" xmlns="http://www.w3.org/2000/svg">
<path d="M0.00624522 18.5108C0.0624522 18.2423 0.106169 17.9737 0.168621 17.7114C0.393449 16.8371 0.830614 16.0814 1.46138 15.4444C2.54805 14.3578 3.62847 13.2586 4.72138 12.1844C6.28269 10.6543 8.59966 10.3109 10.5357 11.3163C10.6668 11.385 10.7543 11.385 10.8542 11.2726C10.9916 11.1165 11.1602 10.9791 11.2913 10.8167C11.3351 10.7668 11.3538 10.6418 11.3226 10.5856C10.2734 8.59966 10.6606 6.14529 12.3468 4.53403C13.3398 3.58475 14.3015 2.60425 15.2633 1.62376C16.1376 0.73069 17.1681 0.174866 18.4109 0.0374713C18.4421 0.0312261 18.4671 0.0124904 18.4983 0C18.8106 0 19.1229 0 19.4351 0C19.7099 0.0562069 19.9847 0.0999234 20.2532 0.174866C23.9379 1.16786 25.2244 5.70813 22.5889 8.46227C21.4898 9.61139 20.3594 10.7355 19.2103 11.8409C17.6552 13.346 15.382 13.6645 13.4522 12.6653C13.3086 12.5904 13.2211 12.5966 13.115 12.7215C12.9526 12.9026 12.6778 13.0463 12.6341 13.2461C12.5904 13.4397 12.7902 13.677 12.8714 13.8956C13.5771 15.8566 13.2773 17.6427 11.8597 19.1728C10.7605 20.3594 9.61763 21.5023 8.43729 22.6014C6.95717 23.9816 5.19602 24.3501 3.29747 23.6631C1.42391 22.9824 0.355977 21.5835 0.0437165 19.6162C0.0312261 19.5538 0.0124904 19.4976 0 19.4414C0.00624522 19.1353 0.00624522 18.8231 0.00624522 18.5108ZM13.8332 12.022C13.9018 12.0595 13.9331 12.0782 13.9705 12.097C15.5319 12.8402 17.4491 12.5404 18.7044 11.3101C19.841 10.2047 20.9589 9.08054 22.0643 7.95016C23.2884 6.69487 23.5882 4.78383 22.8325 3.19755C21.571 0.555824 18.1049 -0.0749426 16.0127 1.96724C14.9261 3.02268 13.8706 4.10311 12.7964 5.17728C11.7972 6.17652 11.385 7.3756 11.5349 8.77453C11.5849 9.25541 11.7223 9.71131 11.9783 10.1735C12.2843 9.8612 12.5716 9.55518 12.8651 9.27415C12.9713 9.16798 12.9963 9.0743 12.9651 8.92441C12.734 7.90644 12.9463 6.99464 13.677 6.23897C14.7637 5.12108 15.8691 4.01567 16.987 2.92901C17.6989 2.23579 18.5795 1.99222 19.5538 2.19207C20.6592 2.42314 21.4086 3.10387 21.7333 4.18429C22.0581 5.26472 21.802 6.24522 21.0152 7.05709C19.9722 8.12503 18.9105 9.16798 17.8551 10.2234C17.0619 11.0103 16.1189 11.2851 15.026 11.0291C14.9573 11.0103 14.8449 11.0228 14.7949 11.0728C14.4764 11.3725 14.1704 11.691 13.8332 12.022ZM12.022 13.8269C11.716 14.1392 11.4287 14.4389 11.129 14.7262C11.0166 14.8324 10.9978 14.9261 11.0353 15.076C11.2601 16.0939 11.0478 17.0057 10.3171 17.7551C9.23043 18.873 8.12502 19.9784 7.00713 21.0651C6.28893 21.7646 5.39587 22.0144 4.41537 21.7958C3.30996 21.5522 2.56678 20.8778 2.24828 19.7848C1.92977 18.6982 2.19207 17.7239 2.98521 16.9183C4.03441 15.8504 5.0961 14.7949 6.16403 13.7395C6.94468 12.9651 7.88146 12.709 8.95564 12.9588C9.01809 12.9713 9.11801 12.99 9.15549 12.9526C9.49273 12.6341 9.81123 12.3031 10.1485 11.9721C8.68085 11.1415 6.62617 11.4038 5.37713 12.6028C4.19054 13.7457 3.02893 14.9136 1.87981 16.0939C1.18035 16.8121 0.824368 17.7052 0.761916 18.7044C0.655748 20.4718 1.64249 22.1143 3.23502 22.8388C4.85253 23.5757 6.7261 23.2509 8.00012 21.9956C9.09303 20.9215 10.1672 19.8348 11.2476 18.7544C11.8347 18.1673 12.2219 17.4616 12.3968 16.6497C12.6028 15.688 12.4779 14.7574 12.022 13.8269ZM13.6895 8.46851C13.9705 8.18123 14.2391 7.88146 14.5326 7.60043C15.0447 7.10706 15.8753 7.1133 16.375 7.60667C16.8933 8.11253 16.8996 8.91817 16.3937 9.4615C16.1564 9.71131 15.9066 9.94863 15.6692 10.1922C15.6318 10.2297 15.6005 10.2796 15.5443 10.3483C16.2501 10.3983 16.8246 10.1984 17.2992 9.7238C18.0924 8.93066 18.8855 8.13752 19.6849 7.33813C19.9909 7.03211 20.3032 6.73859 20.5905 6.42008C21.3399 5.58322 21.2962 4.29046 20.4968 3.49732C19.6974 2.69793 18.3859 2.63548 17.574 3.41613C16.4187 4.52778 15.2883 5.67066 14.1641 6.82602C13.727 7.26319 13.5833 7.82526 13.6895 8.46851ZM8.50598 13.6396C7.81277 13.5771 7.25694 13.7332 6.81977 14.1579C5.6769 15.2758 4.54652 16.4062 3.42862 17.5491C2.9977 17.9862 2.82284 18.5483 2.89153 19.1603C2.98521 20.0471 3.45985 20.6779 4.29671 20.9777C5.14606 21.2837 5.90797 21.0838 6.55748 20.4593C6.92594 20.1033 7.28817 19.7349 7.65039 19.3664C8.34985 18.667 9.05556 17.9675 9.74878 17.2618C10.2172 16.7871 10.417 16.2126 10.3546 15.4944C10.0548 15.7942 9.79874 16.0564 9.5302 16.3188C8.94939 16.8871 8.14376 16.9058 7.60667 16.3625C7.07583 15.8254 7.10081 15.026 7.65663 14.4577C7.91893 14.2079 8.19372 13.9518 8.50598 13.6396ZM16.019 8.65587C16.019 8.31863 15.8753 8.10629 15.6568 8.01886C15.3507 7.9002 15.1384 8.04384 14.9323 8.24993C12.709 10.4732 10.4857 12.6965 8.26242 14.9198C8.19997 14.9823 8.11878 15.0385 8.0938 15.1072C8.04384 15.2633 7.9689 15.4382 8.00637 15.5881C8.10629 16.0377 8.63089 16.1501 8.98062 15.8129C9.5302 15.2758 10.061 14.7325 10.6044 14.1954C12.3156 12.4842 14.0268 10.7792 15.7317 9.06181C15.8691 8.92441 15.9565 8.7433 16.019 8.65587Z" fill="black"/>
<path d="M17.6431 17.2554C17.7743 17.3241 17.8804 17.3615 17.9554 17.4302C18.2677 17.7238 18.5674 18.0298 18.8672 18.3358C19.0358 18.5044 19.0358 18.7292 18.8984 18.8791C18.7485 19.0353 18.5175 19.0353 18.3363 18.8604C18.0303 18.5606 17.7306 18.2546 17.4308 17.9486C17.3121 17.8299 17.2497 17.6738 17.3496 17.5239C17.4121 17.424 17.537 17.349 17.6431 17.2554Z" fill="black"/>
<path d="M20.2912 15.4133C19.8478 15.3633 19.4106 15.3196 18.9672 15.2634C18.7486 15.2322 18.6237 15.0573 18.6425 14.8512C18.6612 14.6576 18.8173 14.5078 19.0297 14.5265C19.4918 14.564 19.9602 14.6139 20.4224 14.6826C20.6222 14.7138 20.7346 14.9012 20.7096 15.101C20.6847 15.3009 20.5223 15.4196 20.2912 15.4133Z" fill="black"/>
<path d="M14.5266 19.0977C14.5203 18.8291 14.6453 18.6605 14.8576 18.6418C15.0824 18.623 15.2448 18.7667 15.276 19.0165C15.326 19.4099 15.3697 19.8034 15.4072 20.1968C15.4384 20.4966 15.326 20.6777 15.0949 20.7027C14.8513 20.7339 14.6952 20.5778 14.664 20.2718C14.6203 19.8783 14.5703 19.4724 14.5266 19.0977Z" fill="black"/>
<path d="M6.34541 6.74474C6.21426 6.66355 6.10185 6.62608 6.02066 6.54489C5.72089 6.25761 5.43361 5.96409 5.14633 5.67056C4.96522 5.48945 4.95897 5.26462 5.10886 5.10849C5.25874 4.95236 5.48982 4.95861 5.67093 5.13347C5.97694 5.43324 6.27671 5.73926 6.57649 6.04527C6.69514 6.16393 6.75135 6.32006 6.65767 6.46995C6.58273 6.57612 6.45783 6.64481 6.34541 6.74474Z" fill="black"/>
<path d="M9.46734 4.89628C9.47359 5.17107 9.34869 5.33344 9.13635 5.35218C8.91152 5.37091 8.75539 5.23352 8.72416 4.97747C8.68045 4.58402 8.63049 4.19057 8.59301 3.79712C8.56179 3.49735 8.6742 3.31624 8.90528 3.29126C9.14884 3.26628 9.30497 3.41616 9.33619 3.72218C9.37367 4.11563 9.42363 4.52157 9.46734 4.89628Z" fill="black"/>
<path d="M4.91542 9.4675C4.4845 9.41754 4.04734 9.37382 3.61642 9.32386C3.39159 9.29264 3.26669 9.13026 3.27918 8.91792C3.29167 8.71183 3.45404 8.56195 3.67887 8.58068C4.13477 8.61815 4.59067 8.66812 5.04657 8.73057C5.25891 8.76179 5.37757 8.9554 5.34634 9.16149C5.31512 9.36133 5.15274 9.47375 4.91542 9.4675Z" fill="black"/>
</svg>
