<svg width="16" height="17" viewBox="0 0 16 17" fill="none" xmlns="http://www.w3.org/2000/svg">
<path fill-rule="evenodd" clip-rule="evenodd" d="M7.99961 14.9001C11.5342 14.9001 14.3996 12.0347 14.3996 8.5001C14.3996 4.96548 11.5342 2.1001 7.99961 2.1001C4.46499 2.1001 1.59961 4.96548 1.59961 8.5001C1.59961 12.0347 4.46499 14.9001 7.99961 14.9001ZM10.9653 7.46578C11.2777 7.15336 11.2777 6.64683 10.9653 6.33441C10.6529 6.02199 10.1463 6.02199 9.83392 6.33441L7.19961 8.96873L6.16529 7.93441C5.85288 7.62199 5.34634 7.62199 5.03392 7.93441C4.7215 8.24683 4.7215 8.75336 5.03392 9.06578L6.63392 10.6658C6.94634 10.9782 7.45288 10.9782 7.76529 10.6658L10.9653 7.46578Z" fill="#30AD1C"/>
</svg>
