<svg width="21" height="24" viewBox="0 0 21 24" fill="none" xmlns="http://www.w3.org/2000/svg">
<path d="M10.5401 0C10.7651 0.103105 11.0088 0.17809 11.2056 0.318688C11.5993 0.599883 11.7727 1.0123 11.7774 1.49502C11.7774 1.61219 11.7774 1.72935 11.7774 1.87932C11.8758 1.87932 11.9602 1.87932 12.0398 1.87932C13.1178 1.87932 14.1957 1.87932 15.2736 1.87932C16.0937 1.87932 16.5624 2.34798 16.5624 3.1775C16.5624 3.23374 16.5671 3.2853 16.5624 3.34154C16.539 3.50088 16.6046 3.58524 16.7592 3.66022C17.0779 3.80551 17.3779 3.98828 17.7387 4.18512C17.8512 4.05858 17.9777 3.89924 18.1183 3.75864C18.6198 3.27124 19.3275 3.26186 19.7914 3.73989C20.246 4.20387 20.232 4.91154 19.7493 5.39895C18.3714 6.78149 16.9889 8.16403 15.6063 9.54189C15.0955 10.0527 14.4112 10.048 13.9004 9.5372C13.2677 8.9092 12.6397 8.28119 12.0117 7.64851C11.5149 7.14704 11.4962 6.44405 11.9649 5.9754C12.4288 5.50674 13.1412 5.51611 13.638 6.0082C14.0035 6.36907 14.3644 6.73462 14.7065 7.07674C15.5126 6.27065 16.314 5.46924 17.1201 4.66315C16.6983 4.34446 16.1781 4.12888 15.611 4.03984C13.3427 3.67897 11.3462 5.28647 11.2056 7.58289C11.0744 9.76684 13.0006 11.6649 15.1845 11.5056C17.1482 11.365 18.5964 9.91681 18.7323 7.95782C18.751 7.68131 18.8822 7.53603 19.1072 7.55009C19.3275 7.55946 19.4587 7.72349 19.4353 8C19.29 9.75747 18.423 11.0322 16.8389 11.8055C16.6139 11.9133 16.5577 12.0258 16.5624 12.2554C16.5671 15.6813 16.5577 19.1119 16.5764 22.5378C16.5811 23.2548 16.3468 23.761 15.6485 24C10.7417 24 5.83948 24 0.93263 24C0.478032 23.8453 0.131224 23.5876 0.0281195 23.0861C0.00468658 22.9783 0 22.8705 0 22.7627C0 16.2156 0 9.67311 0 3.12595C0 2.36673 0.482718 1.88401 1.24663 1.88401C1.97305 1.88401 2.69947 1.88401 3.42589 1.88401C3.69772 1.88401 3.85237 2.0246 3.84769 2.24956C3.843 2.45108 3.69303 2.58699 3.44933 2.58699C2.73228 2.59168 2.01054 2.58699 1.2935 2.58699C0.857645 2.58699 0.702988 2.74165 0.702988 3.18219C0.702988 9.68717 0.702988 16.1922 0.702988 22.7018C0.702988 23.147 0.852958 23.297 1.28881 23.297C5.95196 23.297 10.6151 23.297 15.2783 23.297C15.7094 23.297 15.8688 23.147 15.8688 22.7252C15.8688 19.2666 15.8688 15.8032 15.8688 12.3445C15.8688 12.2835 15.8594 12.2226 15.8547 12.1429C14.2285 12.396 12.8272 11.9742 11.6977 10.7745C10.8635 9.88401 10.4698 8.80609 10.512 7.59227C10.6057 4.8553 13.1365 2.81195 15.8313 3.33685C15.9578 2.8635 15.7563 2.58699 15.2783 2.58699C14.191 2.58699 13.1084 2.58699 12.0211 2.58699C11.9508 2.58699 11.8852 2.59168 11.7821 2.60105C11.7821 2.77914 11.7868 2.94786 11.7821 3.11658C11.768 3.64616 11.44 3.97891 10.9057 3.97891C9.15759 3.9836 7.4048 3.9836 5.65671 3.97891C5.11775 3.97891 4.78032 3.62742 4.78032 3.09315C4.77563 2.59168 4.78032 2.0949 4.78032 1.59344C4.78032 0.787346 5.15993 0.276509 5.9379 0.0421793C5.95665 0.0374927 5.9754 0.0187463 5.99414 0.00468658C7.50791 0 9.02636 0 10.5401 0ZM8.29057 3.26655C9.13415 3.26655 9.97774 3.26186 10.8166 3.27124C11.0088 3.27124 11.0791 3.21031 11.0791 3.01347C11.0697 2.51201 11.0838 2.01523 11.0744 1.51377C11.065 1.00762 10.751 0.702988 10.2449 0.698301C8.93263 0.693615 7.62507 0.693615 6.31283 0.698301C5.80199 0.698301 5.4833 1.02168 5.4833 1.5372C5.47862 2.01992 5.49268 2.50732 5.47862 2.99004C5.47393 3.21031 5.5536 3.27124 5.7645 3.27124C6.6034 3.26186 7.44698 3.26655 8.29057 3.26655ZM12.8412 6.31283C12.7428 6.33626 12.696 6.34095 12.6491 6.35501C12.307 6.47217 12.232 6.86585 12.5132 7.14704C13.1178 7.7563 13.727 8.36555 14.3363 8.97012C14.655 9.28881 14.8658 9.28881 15.1892 8.96544C16.5202 7.63445 17.8512 6.30346 19.1822 4.97247C19.2337 4.92091 19.2853 4.87405 19.3275 4.81781C19.4634 4.63035 19.4446 4.37258 19.2853 4.21793C19.1213 4.05858 18.8776 4.04452 18.6901 4.19449C18.6245 4.24605 18.5636 4.31166 18.5026 4.37258C17.3638 5.51142 16.2296 6.65026 15.0908 7.78442C14.8424 8.03281 14.6831 8.03281 14.4347 7.78442C14.0129 7.36731 13.6005 6.94083 13.174 6.52841C13.0709 6.42999 12.9303 6.37375 12.8412 6.31283Z" fill="white"/>
<path d="M4.4099 14.2894C4.40053 15.0674 3.76784 15.6954 2.98987 15.6954C2.20252 15.6907 1.56983 15.0486 1.5792 14.2566C1.58858 13.4786 2.22595 12.8459 2.99924 12.8506C3.78659 12.8553 4.41459 13.4974 4.4099 14.2894ZM2.28219 14.28C2.28219 14.6737 2.60557 14.9971 2.99924 14.9924C3.38823 14.9877 3.70691 14.6643 3.70691 14.2706C3.70691 13.877 3.37885 13.5536 2.98987 13.5536C2.59619 13.5583 2.27751 13.8863 2.28219 14.28Z" fill="white"/>
<path d="M1.57422 9.95881C1.57422 9.17615 2.19753 8.53877 2.97551 8.5294C3.76754 8.52003 4.4096 9.15272 4.4096 9.94475C4.41429 10.7368 3.77223 11.3788 2.98957 11.3742C2.21159 11.3742 1.57891 10.7415 1.57422 9.95881ZM3.70661 9.95881C3.7113 9.56514 3.39261 9.23707 3.00363 9.23239C2.60995 9.2277 2.28658 9.54639 2.28189 9.94006C2.27721 10.3337 2.59589 10.6618 2.98488 10.6665C3.37387 10.6759 3.70193 10.3525 3.70661 9.95881Z" fill="white"/>
<path d="M1.57934 18.5215C1.5934 17.7436 2.23546 17.1156 3.01343 17.1296C3.80547 17.1437 4.4241 17.7811 4.41004 18.5778C4.39598 19.3651 3.75391 19.9838 2.95251 19.965C2.17922 19.951 1.56528 19.3042 1.57934 18.5215ZM3.70705 18.559C3.71173 18.1607 3.39773 17.8373 3.00406 17.8326C2.61039 17.8279 2.28701 18.1466 2.28233 18.5403C2.27764 18.9386 2.59164 19.2573 2.98531 19.262C3.38367 19.2667 3.70236 18.9527 3.70705 18.559Z" fill="white"/>
<path d="M8.20174 13.1129C9.12032 13.1129 10.0436 13.1082 10.9621 13.1176C11.0887 13.1176 11.248 13.1692 11.3324 13.2582C11.4964 13.4222 11.4027 13.7128 11.173 13.7831C11.0887 13.8112 10.9903 13.8112 10.8965 13.8112C9.07814 13.8112 7.26443 13.8112 5.44603 13.8112C5.39917 13.8112 5.3523 13.8112 5.30543 13.8112C5.07579 13.7925 4.93051 13.6378 4.93988 13.4363C4.95394 13.2395 5.09454 13.1129 5.32418 13.1129C6.28024 13.1082 7.24099 13.1129 8.20174 13.1129Z" fill="white"/>
<path d="M8.17313 19.0184C9.10107 19.0184 10.029 19.0137 10.957 19.023C11.0835 19.023 11.2428 19.0746 11.3272 19.159C11.4912 19.323 11.3975 19.6136 11.1725 19.6885C11.0788 19.7213 10.9757 19.7213 10.8726 19.7213C9.07296 19.7213 7.26862 19.7213 5.46897 19.7213C5.41273 19.7213 5.36118 19.726 5.30494 19.7213C5.0753 19.7026 4.92533 19.5479 4.93939 19.3464C4.94876 19.1543 5.08936 19.0184 5.319 19.0184C6.16259 19.0137 7.00148 19.0137 7.84507 19.0137C7.95286 19.0137 8.06534 19.0184 8.17313 19.0184Z" fill="white"/>
<path d="M7.42325 17.3823C8.11218 17.3823 8.79642 17.3823 9.48534 17.3823C9.76185 17.3823 9.9212 17.5089 9.92588 17.7244C9.93057 17.9447 9.76185 18.0853 9.47597 18.0853C8.10749 18.0853 6.74369 18.0853 5.37521 18.0853C5.10339 18.0853 4.93936 17.9541 4.93467 17.7385C4.92998 17.5135 5.08933 17.3823 5.38458 17.3823C6.06414 17.3823 6.74369 17.3823 7.42325 17.3823Z" fill="white"/>
<path d="M7.43252 11.1683C6.72016 11.1683 6.01248 11.173 5.30012 11.1683C5.07517 11.1683 4.93457 11.023 4.93457 10.8262C4.93457 10.634 5.07517 10.4934 5.29544 10.4747C5.35168 10.47 5.40323 10.47 5.45947 10.47C5.80159 10.47 6.1484 10.47 6.49052 10.47C7.45127 10.47 8.41202 10.47 9.37277 10.47C9.45244 10.47 9.52742 10.4653 9.6071 10.4794C9.80862 10.5075 9.94453 10.6668 9.92578 10.8449C9.90235 11.0418 9.78987 11.1589 9.58835 11.1683C9.37745 11.1777 9.16656 11.173 8.95566 11.173C8.44951 11.1683 7.93867 11.1683 7.43252 11.1683Z" fill="white"/>
<path d="M7.40932 9.54189C6.7532 9.54189 6.09708 9.54189 5.44096 9.54189C5.3566 9.54189 5.24412 9.56063 5.19257 9.51377C5.08946 9.42472 4.97698 9.30756 4.94886 9.18571C4.91606 9.02168 5.03322 8.89045 5.21131 8.85296C5.29567 8.83421 5.38003 8.8389 5.46908 8.8389C6.78132 8.8389 8.09356 8.8389 9.40112 8.8389C9.41518 8.8389 9.43393 8.8389 9.44799 8.8389C9.76199 8.84359 9.9307 8.96544 9.9307 9.19039C9.9307 9.42004 9.76667 9.54189 9.44799 9.54189C8.76374 9.54189 8.08419 9.54189 7.40932 9.54189Z" fill="white"/>
<path d="M6.71557 15.4467C6.27034 15.4467 5.82512 15.4514 5.37989 15.4467C5.0987 15.4421 4.94404 15.3155 4.93467 15.1046C4.92998 14.8797 5.09401 14.7437 5.38458 14.7437C6.2844 14.7391 7.17954 14.7391 8.07937 14.7437C8.36056 14.7437 8.51522 14.875 8.52459 15.0859C8.52928 15.3061 8.36525 15.4467 8.07468 15.4467C7.62008 15.4467 7.17017 15.4467 6.71557 15.4467Z" fill="white"/>
<path d="M3.42168 5.90523C3.05613 5.90523 2.68589 5.90523 2.32033 5.90523C2.04851 5.90523 1.89385 5.76932 1.89854 5.54437C1.90323 5.33347 2.0532 5.20225 2.31565 5.20225C3.05613 5.19756 3.79661 5.19756 4.54177 5.20225C4.8136 5.20225 4.96825 5.34284 4.96357 5.56311C4.95888 5.77401 4.80422 5.90523 4.54646 5.90523C4.17153 5.90992 3.79661 5.90523 3.42168 5.90523Z" fill="white"/>
</svg>
