
<svg width="25" height="24" viewBox="0 0 25 24" fill="none" xmlns="http://www.w3.org/2000/svg">
<path d="M0.0124999 3.70028C0.0874991 3.55028 0.137499 3.38154 0.231248 3.24404C0.499995 2.84404 0.887491 2.66279 1.36874 2.66904C3.71871 2.66904 6.06869 2.66904 8.41866 2.66904C10.3624 2.66904 12.3061 2.66904 14.2499 2.66904C14.3249 2.66904 14.4061 2.66279 14.4811 2.67529C14.6623 2.70654 14.7748 2.81904 14.7811 3.01279C14.7873 3.20654 14.6811 3.31904 14.4999 3.36279C14.4186 3.38154 14.3311 3.37529 14.2436 3.37529C9.99365 3.37529 5.74369 3.37529 1.49998 3.37529C0.893741 3.37529 0.706243 3.56278 0.706243 4.17528C0.706243 4.77527 0.706243 5.37526 0.706243 6.00026C0.824992 6.00026 0.924991 6.00026 1.02499 6.00026C5.51869 6.00026 10.0061 6.00026 14.4999 6.00026C14.9123 6.00026 15.0748 6.10026 15.0748 6.344C15.0748 6.594 14.8998 6.70025 14.4811 6.70025C9.9874 6.70025 5.49994 6.70025 1.00624 6.70025C0.912491 6.70025 0.824992 6.70025 0.706243 6.70025C0.706243 7.094 0.706243 7.46274 0.706243 7.83774C0.706243 8.23774 0.699993 8.63148 0.706243 9.03148C0.706243 9.22522 0.699993 9.41897 0.487495 9.50647C0.281247 9.59397 0.137499 9.46897 0 9.33147C0.0124999 7.45024 0.0124999 5.57526 0.0124999 3.70028Z" fill="white"/>
<path d="M11.6369 23.9999C11.2369 23.8562 11.0744 23.5499 10.9869 23.1437C10.4557 20.675 9.90571 18.2062 9.36821 15.7375C9.22446 15.075 9.66196 14.6125 10.3182 14.7563C12.8369 15.3063 15.3619 15.8625 17.8806 16.4125C18.2119 16.4812 18.4681 16.6375 18.5619 16.975C18.6494 17.3125 18.5244 17.5812 18.2806 17.8125C17.8556 18.2187 17.4494 18.6375 17.0181 19.0625C17.0806 19.1312 17.1244 19.1875 17.1806 19.2375C17.5681 19.625 17.9556 20.0062 18.3369 20.4C18.6931 20.7625 18.7056 21.1999 18.3494 21.5562C17.6306 22.2812 16.9056 23.0062 16.1744 23.7249C16.0619 23.8374 15.9056 23.8999 15.7681 23.9874C15.6556 23.9874 15.5494 23.9874 15.4369 23.9874C15.2307 23.8312 15.0057 23.6874 14.8182 23.5124C14.4432 23.1562 14.0807 22.7812 13.7057 22.3999C13.6244 22.4749 13.5682 22.5249 13.5182 22.5749C13.1869 22.9062 12.8682 23.2437 12.5244 23.5624C12.3432 23.7249 12.1307 23.8499 11.9307 23.9937C11.8244 23.9999 11.7307 23.9999 11.6369 23.9999ZM15.5556 23.2749C16.3431 22.4937 17.0994 21.7312 17.8744 20.9625C17.8369 20.925 17.7869 20.8687 17.7369 20.8125C17.3556 20.4312 16.9744 20.05 16.5931 19.6687C16.2244 19.2937 16.2244 18.8687 16.5994 18.4937C16.9744 18.1187 17.3494 17.7437 17.7244 17.3687C17.7806 17.3125 17.8306 17.25 17.9244 17.15C15.2682 16.5687 12.6682 15.9938 10.012 15.4063C10.5932 18.0625 11.1682 20.6687 11.7557 23.3312C11.8557 23.2374 11.9182 23.1812 11.9682 23.1312C12.3182 22.7812 12.6619 22.4374 13.0119 22.0874C13.5057 21.5937 13.8744 21.5937 14.3744 22.0937C14.7744 22.4937 15.1744 22.8937 15.5556 23.2749Z" fill="white"/>
<path d="M0.0126953 10.8251C0.125194 10.6626 0.262693 10.5376 0.48144 10.6126C0.693938 10.6939 0.718938 10.8689 0.718938 11.0751C0.718938 14.2814 0.718938 17.4938 0.718938 20.7C0.718938 21.275 0.912686 21.4688 1.49393 21.4688C4.02515 21.4688 6.55013 21.4688 9.08135 21.4688C9.1501 21.4688 9.2251 21.4625 9.29385 21.475C9.4876 21.5 9.6376 21.6563 9.61885 21.8375C9.6001 22.0313 9.4876 22.15 9.2876 22.175C9.2126 22.1813 9.13135 22.1813 9.05635 22.1813C6.58138 22.1813 4.1064 22.1625 1.63143 22.1938C0.825187 22.1875 0.275193 21.9188 0.0126953 21.1375C0.0126953 17.7001 0.0126953 14.2626 0.0126953 10.8251Z" fill="white"/>
<path d="M19.7496 8.45016C17.4059 8.43141 15.5309 6.51893 15.5559 4.18771C15.5809 1.83773 17.4871 -0.024751 19.8496 0.00024875C22.1621 0.0252485 24.0308 1.94398 24.0121 4.2752C23.9933 6.59393 22.0746 8.47516 19.7496 8.45016ZM19.7871 7.75017C21.7308 7.75017 23.3058 6.17519 23.3121 4.23771C23.3183 2.28773 21.7308 0.700241 19.7871 0.700241C17.8496 0.700241 16.2747 2.27523 16.2684 4.21271C16.2559 6.16893 17.8309 7.75017 19.7871 7.75017Z" fill="white"/>
<path d="M9.73791 11.2627C11.5566 11.2689 13.0941 12.4314 13.5691 14.1252C13.5941 14.2064 13.6129 14.2939 13.6129 14.3752C13.6129 14.5564 13.5066 14.6939 13.3379 14.6939C13.2129 14.6939 13.0816 14.6002 12.9691 14.5189C12.9254 14.4877 12.9191 14.3939 12.9004 14.3252C12.4379 12.7252 10.8941 11.7314 9.28166 12.0002C7.65043 12.2752 6.50044 13.7064 6.57544 15.3689C6.63794 16.6939 7.61293 17.9126 8.88791 18.2751C8.93791 18.2876 8.99416 18.3064 9.04416 18.3189C9.28791 18.3939 9.39416 18.5626 9.33166 18.7751C9.27541 18.9689 9.09416 19.0564 8.86292 19.0001C7.02543 18.5564 5.77545 16.8751 5.8692 14.9627C5.95669 13.1314 7.40043 11.5627 9.23791 11.3002C9.43166 11.2814 9.61916 11.2752 9.73791 11.2627Z" fill="white"/>
<path d="M20.1375 15.1187C20.1375 16.8499 20.1375 18.5874 20.1375 20.3186C20.1375 20.4124 20.1375 20.5061 20.125 20.5999C20.0937 20.7624 19.9812 20.8561 19.8125 20.8624C19.6375 20.8686 19.5063 20.7874 19.4625 20.6124C19.4375 20.5249 19.4375 20.4249 19.4375 20.3311C19.4375 16.8374 19.4375 13.35 19.4375 9.85625C19.4375 9.79375 19.4375 9.73125 19.4438 9.66876C19.4688 9.46251 19.6125 9.32501 19.7937 9.33126C19.975 9.33126 20.1187 9.47501 20.1375 9.67501C20.1437 9.76875 20.1437 9.8625 20.1437 9.95625C20.1375 11.6875 20.1375 13.4062 20.1375 15.1187Z" fill="white"/>
<path d="M9.91234 12.8191C10.5998 12.8503 11.2123 13.1503 11.6811 13.7503C11.8686 13.9941 11.8686 14.2066 11.6811 14.3441C11.5061 14.4753 11.3186 14.4191 11.1248 14.1878C10.6436 13.5878 9.90609 13.3753 9.2186 13.6316C8.53736 13.8816 8.09361 14.5378 8.12486 15.2691C8.14986 15.7503 8.34986 16.1565 8.71235 16.4753C8.78735 16.5378 8.89985 16.6253 8.89985 16.7003C8.89985 16.8315 8.8686 17.0003 8.78735 17.094C8.66235 17.2253 8.48736 17.194 8.34361 17.0753C7.69986 16.5503 7.38112 15.8753 7.42487 15.0441C7.49362 13.7816 8.58735 12.7878 9.91234 12.8191Z" fill="white"/>
<path d="M5.81201 4.44418C6.19325 4.43793 6.337 4.53168 6.34325 4.78168C6.34325 5.03168 6.18075 5.14418 5.79951 5.14418C5.72451 5.14418 5.64326 5.14418 5.56826 5.12543C5.38076 5.08168 5.28701 4.95668 5.29326 4.76918C5.29951 4.58168 5.41201 4.46918 5.59951 4.44418C5.67451 4.43793 5.74326 4.44418 5.81201 4.44418Z" fill="white"/>
<path d="M2.31859 4.44414C2.38734 4.44414 2.46234 4.43789 2.53109 4.44414C2.71233 4.46914 2.81233 4.56914 2.83108 4.75039C2.84983 4.93789 2.76233 5.08163 2.57484 5.11288C2.42484 5.14413 2.26234 5.14413 2.11234 5.13163C1.89984 5.11288 1.78109 4.96914 1.78734 4.77539C1.79359 4.58164 1.91859 4.45664 2.13734 4.44414C2.19359 4.43789 2.25609 4.43789 2.31859 4.44414C2.31859 4.43789 2.31859 4.44414 2.31859 4.44414Z" fill="white"/>
<path d="M4.06891 4.4375C4.42516 4.4375 4.59391 4.55 4.59391 4.7875C4.59391 5.01874 4.41266 5.14374 4.06891 5.14374C4.03766 5.14374 4.00641 5.14374 3.97516 5.14374C3.69392 5.13749 3.52517 4.99374 3.53142 4.775C3.53767 4.5625 3.69392 4.44375 3.97516 4.4375C4.00641 4.4375 4.03766 4.4375 4.06891 4.4375Z" fill="white"/>
<path d="M18.5747 5.14378C18.5747 4.91253 18.7059 4.75004 18.9059 4.73754C19.0997 4.72504 19.2434 4.86878 19.2747 5.10628C19.3184 5.41253 19.5059 5.59378 19.7747 5.59378C20.0247 5.60003 20.2372 5.41878 20.2872 5.16253C20.3434 4.85628 20.1247 4.60629 19.7747 4.57504C19.1997 4.52504 18.7809 4.21879 18.6247 3.72505C18.4434 3.1563 18.6872 2.54381 19.2309 2.28131C19.3934 2.20006 19.4434 2.11256 19.4309 1.94381C19.4184 1.84382 19.4247 1.73757 19.4497 1.64382C19.4934 1.46257 19.6247 1.36257 19.8059 1.37507C19.9872 1.38757 20.1434 1.50007 20.1184 1.68757C20.0809 2.03756 20.2059 2.24381 20.5184 2.41256C20.8247 2.58131 20.9559 2.91255 20.9934 3.26255C21.0184 3.4938 20.9059 3.6688 20.7059 3.7063C20.4872 3.7438 20.3372 3.6188 20.2934 3.3688C20.2309 3.0188 20.0122 2.82506 19.7122 2.86256C19.4372 2.8938 19.2434 3.15005 19.2747 3.4313C19.3059 3.70005 19.5059 3.86254 19.8372 3.88754C20.4372 3.93129 20.8747 4.32504 20.9747 4.91253C21.0622 5.43128 20.7997 5.95627 20.3059 6.18752C20.1622 6.25627 20.1059 6.33127 20.1247 6.48752C20.1372 6.58127 20.1309 6.67502 20.1247 6.76876C20.1059 6.95626 19.9934 7.06876 19.8122 7.08751C19.6247 7.10626 19.4372 7.00001 19.4622 6.82501C19.5122 6.38127 19.2559 6.18127 18.9434 5.96252C18.6872 5.77502 18.5747 5.43128 18.5747 5.14378Z" fill="white"/>
</svg>
