<svg width="25" height="24" viewBox="0 0 25 24" fill="none" xmlns="http://www.w3.org/2000/svg">
<path d="M23.8106 17.8631C23.7307 17.6141 23.6461 17.3698 23.5287 17.1396C23.026 16.1201 22.2226 15.3966 21.1843 14.9408C21.128 14.9174 21.0716 14.8892 21.0058 14.861C21.6072 12.9348 21.6119 11.0132 21.0199 9.1199C21.4239 8.8709 21.8468 8.65948 22.2132 8.3823C22.2461 8.35881 22.279 8.33062 22.3119 8.30713C23.3361 7.48966 23.9374 6.25406 23.9844 4.94329L24.0079 4.25736C24.0079 3.97548 23.9703 3.69829 23.8857 3.4258V3.4211C23.5428 2.29356 22.9508 1.4338 22.1052 0.837145C21.377 0.320354 20.4984 0.0431661 19.6058 0.0196756L18.9668 0.000883202C18.5722 -0.008513 18.1822 0.0572604 17.8064 0.188807C16.5379 0.644523 15.6124 1.48548 15.0392 2.70699C15.0016 2.79156 14.964 2.87612 14.9171 2.97948C12.9908 2.38282 11.0693 2.37812 9.16659 2.97008C8.96457 2.62242 8.79544 2.27007 8.57463 1.9506C8.55114 1.91301 8.52295 1.88012 8.49476 1.84254C7.63971 0.686806 6.26786 0.0243737 4.82555 0.0290718H4.52017C3.58055 0.0337699 2.65502 0.310958 1.88923 0.855938C0.949612 1.53246 0.334161 2.51437 0.0945579 3.82044C-0.262498 5.77955 0.46101 7.36751 2.06776 8.53733C2.36844 8.75345 2.7161 8.90848 3.04497 9.09641C2.44361 11.0085 2.453 12.9348 3.05436 14.861C2.9651 14.9033 2.88523 14.9361 2.81006 14.9737C0.437519 15.9979 -0.666535 18.8826 0.418727 21.2175C0.536179 21.4759 0.710009 21.5652 0.912028 21.4853C1.12344 21.4007 1.18452 21.1893 1.06706 20.9309C0.714707 20.1322 0.620745 19.3101 0.799273 18.455C1.20801 16.51 3.05906 14.9878 5.28596 15.3261C7.60212 15.6738 9.03505 17.7268 8.6498 20.0336C8.29744 22.1336 6.10813 23.6464 4.01747 23.2283C3.27987 23.0827 2.62683 22.7773 2.05836 22.2793C1.82346 22.0726 1.56506 22.1008 1.44761 22.3357C1.34895 22.5424 1.44291 22.688 1.59795 22.8243C3.68861 24.6565 6.9068 24.2995 8.52765 22.0397C8.77195 21.7014 8.95518 21.3209 9.17129 20.9544C11.074 21.5464 12.9861 21.5417 14.9124 20.945C14.95 21.0202 14.9828 21.0907 15.011 21.1611C15.7392 22.8337 17.4869 24.0974 19.634 23.9941C21.4286 23.9095 23.1481 22.6363 23.773 20.8699C23.773 20.8652 23.7777 20.8605 23.7777 20.8558C24.1206 19.8879 24.1206 18.8356 23.8106 17.8631ZM19.3991 0.644523C21.6025 0.682108 23.3924 2.52376 23.3502 4.70838C23.3079 6.91649 21.4897 8.69707 19.3192 8.65479C17.0735 8.6125 15.3023 6.81313 15.3352 4.60972C15.3681 2.38752 17.1956 0.606938 19.3991 0.644523ZM14.7151 18.3517C14.607 18.953 14.5882 19.545 14.7104 20.1463C14.7151 20.1745 14.7104 20.2074 14.7104 20.292C14.1983 20.3953 13.6815 20.5363 13.16 20.6021C11.962 20.7571 10.7733 20.6725 9.60821 20.339C9.40619 20.2826 9.34512 20.2262 9.3827 19.9913C9.81023 17.5483 8.03905 15.0583 5.59603 14.6449C5.02756 14.5462 4.46379 14.5274 3.89532 14.6402C3.85304 14.6496 3.80136 14.6402 3.75908 14.6402C3.2 13.1838 3.15772 10.9193 3.73089 9.33601C4.25238 9.33601 4.74568 9.3548 5.23428 9.33131C5.84973 9.29843 6.4229 9.09171 6.96788 8.80043C7.19339 8.68297 7.26386 8.48565 7.1699 8.29773C7.07594 8.10981 6.86922 8.05343 6.64371 8.17088C5.94839 8.53733 5.21079 8.68767 4.42621 8.64069C2.69261 8.53733 1.13754 7.18428 0.803971 5.47887C0.36235 3.20969 1.77648 1.13313 4.05036 0.7009C6.15041 0.301562 8.31154 1.81905 8.6592 3.9285C8.85182 5.11242 8.59812 6.17889 7.86522 7.1279C7.75716 7.26885 7.70078 7.41449 7.78535 7.58362C7.9122 7.83262 8.20818 7.83732 8.4055 7.59302C8.8894 6.99166 9.20418 6.30574 9.34982 5.54934C9.46257 4.97617 9.47667 4.39831 9.35921 3.82514C9.34982 3.77816 9.35452 3.73118 9.34982 3.68889C10.7686 3.12982 13.0519 3.07814 14.7057 3.6795C14.4238 5.32383 14.809 6.78494 16.0023 7.97826C17.1956 9.17158 18.6568 9.56622 20.3152 9.28433C20.6018 10.1582 20.7333 11.0414 20.7333 11.9435C20.738 12.8032 20.6112 13.6395 20.3763 14.4663C20.3293 14.6308 20.2588 14.6637 20.0944 14.6308C17.6749 14.1704 15.1614 15.9134 14.7151 18.3517ZM19.3333 23.2894C17.1346 23.2847 15.3305 21.4759 15.3305 19.2819C15.3305 17.0785 17.1252 15.2838 19.3333 15.2791C21.5414 15.2697 23.3596 17.0879 23.3502 19.2913C23.3408 21.49 21.5273 23.2941 19.3333 23.2894Z" fill="white"/>
<path d="M3.43927 19.2161C3.43927 18.7791 3.43927 18.3422 3.43927 17.9006C3.44397 17.4449 3.81042 17.2241 4.20976 17.4496C4.97555 17.8865 5.74134 18.3281 6.50243 18.7697C6.92056 19.014 6.91586 19.4416 6.49303 19.6906C5.73664 20.1322 4.98025 20.5691 4.21915 21.0013C3.81042 21.2362 3.43927 21.0154 3.43457 20.5456C3.43457 20.1087 3.43927 19.6624 3.43927 19.2161ZM5.87289 19.2301C5.28092 18.8872 4.72655 18.5677 4.15808 18.2388C4.15808 18.9154 4.15808 19.5543 4.15808 20.2214C4.73125 19.8926 5.28092 19.5731 5.87289 19.2301Z" fill="white"/>
<path d="M14.2121 13.4092C14.2121 12.136 14.2121 10.9098 14.2121 9.70713C13.3241 10.0454 12.4409 10.3837 11.5247 10.736C11.5247 11.2387 11.5247 11.7978 11.5247 12.3757C11.7925 12.4555 12.065 12.5354 12.3375 12.6247C12.6006 12.7092 12.704 12.8737 12.6429 13.0898C12.5818 13.2965 12.3892 13.3716 12.1261 13.2965C12.1026 13.2918 12.0791 13.2871 12.0603 13.2777C11.4261 13.0851 11.257 13.0757 10.5287 13.1978C10.5522 13.6676 10.5757 14.1421 10.5992 14.6166C10.6133 14.8891 10.6274 15.1616 10.6368 15.4388C10.6415 15.6784 10.5147 15.8335 10.3079 15.8475C10.1012 15.8616 9.94148 15.6972 9.92739 15.4576C9.8945 14.7764 9.85692 14.0999 9.83343 13.4186C9.82873 13.2307 9.77705 13.1649 9.57973 13.1649C9.05354 13.1602 8.79045 12.883 8.78575 12.3616C8.78105 11.7978 8.78105 11.234 8.78575 10.6702C8.79045 10.1722 9.06294 9.89975 9.55624 9.89975C10.0167 9.89975 10.4865 9.85277 10.9422 9.90915C11.7456 10.0125 12.4127 9.65545 13.108 9.38296C13.4463 9.25141 13.7704 9.06349 14.0899 8.88966C14.1557 8.85208 14.2121 8.75811 14.2262 8.67825C14.2731 8.43395 14.3953 8.2977 14.5973 8.3071C14.8087 8.31649 14.9403 8.47153 14.945 8.72523C14.9497 9.289 14.945 9.85277 14.945 10.4165C14.945 11.7085 14.945 13.0005 14.945 14.2925C14.945 14.5791 14.8275 14.7294 14.6114 14.7435C14.4094 14.7576 14.2543 14.6448 14.2449 14.4334C14.2402 14.2596 14.1557 14.1844 14.0194 14.1186C13.8362 14.0294 13.6577 13.9354 13.4792 13.8368C13.2724 13.7193 13.202 13.5314 13.2959 13.3482C13.3899 13.1649 13.5872 13.1039 13.7986 13.2025C13.9255 13.2636 14.0523 13.3294 14.2121 13.4092ZM9.50926 10.6139C9.50926 11.2387 9.50926 11.8354 9.50926 12.4273C9.94618 12.4273 10.3643 12.4273 10.7871 12.4273C10.7871 11.8119 10.7871 11.2152 10.7871 10.6139C10.3549 10.6139 9.93678 10.6139 9.50926 10.6139Z" fill="white"/>
<path d="M2.92316 5.79815C2.53322 5.46929 2.26543 5.06995 2.16207 4.56725C2.05401 4.03167 2.10099 3.51018 2.30301 3.00278C2.43456 2.66922 2.73524 2.62224 2.95605 2.90412C3.24263 3.26118 3.59499 3.51488 4.04131 3.63233C4.0695 3.64172 4.10239 3.64642 4.13057 3.65112C4.15406 3.65582 4.17755 3.65112 4.21044 3.65112C4.23393 3.57595 4.25272 3.50548 4.27621 3.43031C4.52991 2.63163 5.42255 2.26518 6.15076 2.67392C6.3011 2.75848 6.41385 2.77258 6.55479 2.67392C6.73802 2.54707 6.93064 2.41552 7.14676 2.59875C7.37226 2.79137 7.283 3.03567 7.16555 3.2189C6.89776 3.62763 6.85077 4.07865 6.77091 4.53906C6.39036 6.73307 4.04131 7.69149 2.07281 6.61092C1.90837 6.52166 1.8379 6.38542 1.88018 6.20219C1.92247 6.02366 2.04931 5.94849 2.21845 5.9297C2.44865 5.90621 2.67886 5.88742 2.90437 5.86862C2.91377 5.84044 2.91846 5.81695 2.92316 5.79815ZM2.84799 3.81555C2.75873 4.42631 2.95135 4.92431 3.41176 5.26257C3.55271 5.37063 3.72184 5.4458 3.87218 5.53976C4.12118 5.69479 4.13527 5.98138 3.90037 6.15991C3.83459 6.21159 3.76412 6.24917 3.69365 6.29615C3.85339 6.33374 4.00842 6.33843 4.15876 6.31025C5.41316 6.07534 6.17425 5.10283 6.12727 3.79206C6.11787 3.48669 5.86417 3.23769 5.5541 3.22359C5.18295 3.2095 4.93395 3.46789 4.92925 3.88133C4.92455 4.29946 4.8165 4.41221 4.39837 4.39812C3.82989 4.37933 3.3225 4.17731 2.84799 3.81555Z" fill="white"/>
<path d="M19.3941 4.21975C19.582 4.21975 19.7371 4.21505 19.8921 4.21975C20.1223 4.22914 20.282 4.37479 20.2867 4.57211C20.2914 4.76943 20.1364 4.91977 19.9015 4.92916C19.7418 4.93856 19.5773 4.92916 19.3941 4.92916C19.3941 5.55401 19.3941 6.15067 19.3941 6.74263C19.3941 6.84599 19.3988 6.94934 19.3847 7.048C19.3565 7.25472 19.2344 7.38157 19.0276 7.38157C18.8209 7.38157 18.6941 7.24532 18.6753 7.04331C18.6565 6.82719 18.6659 6.60638 18.6659 6.38557C18.6659 5.91106 18.6659 5.43656 18.6659 4.92916C18.4921 4.92916 18.3464 4.93386 18.1961 4.92916C17.9659 4.91507 17.8108 4.76473 17.8155 4.56741C17.8202 4.37009 17.9847 4.22914 18.2149 4.21975C18.3558 4.21505 18.4921 4.21975 18.6659 4.21975C18.6659 3.92847 18.6659 3.66067 18.6659 3.38818C18.6659 2.45796 19.2109 1.91768 20.1411 1.91768C20.2491 1.91768 20.3619 1.91298 20.47 1.92238C20.6673 1.94117 20.8082 2.09621 20.8082 2.27473C20.8082 2.45796 20.6673 2.6083 20.4653 2.62239C20.3149 2.63179 20.1693 2.62239 20.0189 2.63179C19.6243 2.65528 19.3988 2.88079 19.3894 3.27543C19.3894 3.57611 19.3941 3.88148 19.3941 4.21975Z" fill="white"/>
<path d="M19.3282 21.7812C18.8349 21.7812 18.3416 21.7859 17.8483 21.7812C17.2611 21.7765 16.8382 21.3678 16.8335 20.7759C16.8242 19.7799 16.8289 18.7886 16.8335 17.7926C16.8382 17.2053 17.2235 16.7872 17.8108 16.7778C18.8255 16.759 19.845 16.759 20.8645 16.7778C21.4612 16.7872 21.8417 17.21 21.8417 17.816C21.8464 18.7933 21.8464 19.7705 21.8417 20.7524C21.837 21.3678 21.4236 21.7765 20.8081 21.7812C20.3148 21.7859 19.8215 21.7812 19.3282 21.7812ZM17.5571 19.2772C17.5571 19.7564 17.5571 20.2309 17.5571 20.7101C17.5571 20.992 17.6369 21.0718 17.9235 21.0718C18.8725 21.0718 19.8168 21.0765 20.7659 21.0718C21.0477 21.0718 21.1276 20.9873 21.1276 20.7054C21.1323 19.7564 21.1323 18.812 21.1276 17.863C21.1276 17.5623 21.0665 17.5013 20.7706 17.5013C19.8168 17.5013 18.8631 17.5013 17.9047 17.5013C17.6181 17.5013 17.5571 17.5623 17.5571 17.8489C17.5524 18.3234 17.5571 18.7979 17.5571 19.2772Z" fill="white"/>
<path d="M20.4048 19.268C20.4095 19.8694 19.9397 20.3486 19.3431 20.3439C18.7558 20.3439 18.286 19.8788 18.2813 19.2868C18.2766 18.6948 18.737 18.2203 19.3196 18.2109C19.9256 18.2109 20.4001 18.6714 20.4048 19.268ZM19.3431 19.6298C19.5404 19.6298 19.7001 19.4653 19.6954 19.2727C19.6907 19.0895 19.5357 18.9297 19.3525 18.925C19.1598 18.9203 18.9907 19.0848 18.986 19.2774C18.9813 19.47 19.1457 19.6298 19.3431 19.6298Z" fill="white"/>
</svg>
