<svg width="23" height="24" viewBox="0 0 23 24" fill="none" xmlns="http://www.w3.org/2000/svg">
<path d="M8.31559 16.6269C8.55405 16.9784 8.7674 17.2984 8.98076 17.6122C9.75261 18.748 10.5307 19.8775 11.2838 21.0196C12.0117 22.1115 11.5473 23.4795 10.3299 23.8999C9.50788 24.1823 8.6168 23.856 8.07713 23.0716C7.01662 21.5153 5.96239 19.9591 4.90816 18.4028C4.85796 18.3275 4.80148 18.2522 4.745 18.1644C4.26181 18.4656 3.7598 18.6413 3.20758 18.6538C1.4317 18.7103 -0.0429697 17.2607 0.000956663 15.4786C0.0260574 14.4495 0.484147 13.6462 1.32502 13.0626C1.93999 12.6359 2.57379 12.2218 3.18876 11.7888C3.32681 11.6884 3.45859 11.5503 3.53389 11.3997C4.73873 8.98376 5.93102 6.55526 7.1233 4.13303C7.41196 3.54944 7.90143 3.24196 8.52895 3.16665C9.3259 3.07253 10.0475 3.33608 10.7315 3.70632C11.9803 4.37777 12.9906 5.33787 13.8817 6.42348C15.1869 8.01738 16.2035 9.76816 16.7369 11.7699C16.9628 12.6171 17.082 13.4768 16.9001 14.3491C16.8059 14.7946 16.6302 15.2025 16.3039 15.5288C15.9839 15.8551 15.5948 16.0245 15.1367 16.0622C12.9279 16.2316 10.7127 16.4136 8.50385 16.5893C8.45992 16.5956 8.40344 16.6144 8.31559 16.6269ZM7.63787 5.91519C7.70062 6.27915 7.74455 6.74352 7.87005 7.18278C8.65445 9.95014 10.1981 12.228 12.407 14.0478C13.022 14.5561 13.6997 14.9515 14.4967 15.1272C14.9171 15.2213 15.256 15.0832 15.5446 14.8071C15.7831 14.575 15.9086 14.28 15.9713 13.96C16.0968 13.2885 16.0404 12.6234 15.8458 11.9833C15.0112 9.16574 13.411 6.85647 11.0955 5.04294C10.5558 4.6225 9.95969 4.29619 9.28197 4.13303C8.44109 3.93223 7.84495 4.32757 7.70062 5.18099C7.66924 5.39435 7.66297 5.6077 7.63787 5.91519ZM12.5702 15.3468C9.61456 13.1944 7.7069 10.3831 6.80954 6.86902C6.79072 6.9004 6.77189 6.93177 6.75934 6.95687C5.97494 8.55705 5.19054 10.1635 4.39987 11.7637C4.33712 11.8954 4.36849 11.977 4.43752 12.0837C5.22819 13.2446 6.01887 14.3993 6.79699 15.5664C6.9225 15.7484 7.04173 15.7986 7.25508 15.7798C8.20264 15.6919 9.14392 15.6229 10.0915 15.5476C10.9072 15.4786 11.723 15.4158 12.5702 15.3468ZM3.66567 12.592C3.04443 13.0124 2.42946 13.4203 1.83331 13.8408C0.848108 14.5436 0.647302 15.7735 1.34385 16.7838C2.03412 17.7879 3.24523 18.0389 4.24926 17.3862C4.80776 17.0223 5.3537 16.6395 5.89964 16.263C5.95612 16.2253 6.01259 16.1814 6.06907 16.1375C5.26584 14.9577 4.47517 13.7843 3.66567 12.592ZM5.51685 17.6561C5.79296 18.064 6.05024 18.4405 6.3138 18.8233C7.16723 20.0783 8.02066 21.3396 8.87408 22.5947C9.14392 22.99 9.53925 23.1531 9.94086 23.0527C10.6437 22.877 10.9135 22.1177 10.4868 21.4839C9.4514 19.9528 8.40972 18.4217 7.37431 16.8905C7.23626 16.6834 7.02917 16.6269 6.82209 16.765C6.3891 17.0537 5.96867 17.3486 5.51685 17.6561Z" fill="black"/>
<path d="M17.8291 6.52365C17.5342 6.52365 17.3836 6.41697 17.302 6.21616C17.2267 6.01536 17.302 5.802 17.5091 5.67022C17.9671 5.36901 18.4252 5.0678 18.8833 4.76659C19.4669 4.38381 20.0442 4.00102 20.6278 3.61823C20.9165 3.42998 21.1926 3.45508 21.3495 3.69354C21.5189 3.93199 21.4373 4.2081 21.1424 4.40891C20.1321 5.07408 19.1155 5.73925 18.0989 6.40442C17.9985 6.46717 17.8793 6.50482 17.8291 6.52365Z" fill="black"/>
<path d="M18.5939 8.67599C19.2151 8.78895 19.8803 8.90818 20.5455 9.02741C21.1228 9.13408 21.7001 9.23449 22.2774 9.33489C22.5786 9.38509 22.7669 9.59845 22.7355 9.85573C22.6978 10.1381 22.4406 10.3075 22.1205 10.2511C20.9847 10.0503 19.8552 9.84318 18.7194 9.6361C18.6127 9.61727 18.4997 9.59845 18.3993 9.57335C18.1546 9.50432 18.0103 9.29096 18.0479 9.06506C18.0919 8.82032 18.2927 8.66344 18.5939 8.67599Z" fill="black"/>
<path d="M16.2347 0.493308C16.1405 1.42831 16.0401 2.36332 15.946 3.29204C15.9209 3.51795 15.9021 3.74386 15.8707 3.96977C15.8331 4.25842 15.626 4.42158 15.3561 4.39648C15.1051 4.37138 14.9294 4.1643 14.9545 3.88191C15.0675 2.721 15.1867 1.56009 15.3059 0.405455C15.3373 0.135622 15.557 -0.0275331 15.8205 0.00384286C16.0715 0.0352188 16.2409 0.236025 16.2347 0.493308Z" fill="black"/>
<path d="M11.0011 7.68457C12.1056 7.68457 13.0594 8.35602 13.4108 9.37887C13.756 10.3829 13.4296 11.5062 12.5888 12.1651C12.5009 12.2341 12.4131 12.2968 12.3064 12.3345C12.093 12.4035 11.8671 12.3031 11.7667 12.1086C11.66 11.9078 11.704 11.6756 11.9048 11.525C12.2813 11.2426 12.526 10.8912 12.5888 10.4206C12.6641 9.78676 12.4507 9.27219 11.9299 8.90823C11.4153 8.54427 10.8568 8.51917 10.2858 8.79528C10.2167 8.82666 10.154 8.87686 10.0787 8.90823C9.84651 9.02119 9.58923 8.95216 9.46372 8.7388C9.33822 8.53172 9.3947 8.26816 9.60178 8.11756C9.95946 7.86028 10.5117 7.68457 11.0011 7.68457Z" fill="black"/>
</svg>
